<?xml version="1.0" encoding="UTF-8"?>
<svg id="Layer_1" xmlns="http://www.w3.org/2000/svg" viewBox="0 0 290.39 486.01">
  <defs>
    <style>
      .cls-1 {
        stroke: #28441e;
        stroke-width: 67.2px;
      }

      .cls-1, .cls-2, .cls-3 {
        fill: none;
        stroke-miterlimit: 10;
      }

      .cls-2 {
        stroke: #788b6f;
      }

      .cls-2, .cls-3 {
        stroke-width: 19.2px;
      }

      .cls-4 {
        fill: #e3d3a6;
      }

      .cls-3 {
        stroke: #687761;
      }
    </style>
  </defs>
  <path class="cls-4" d="M93.24,459.47c.09-.14.17-.29.26-.43-.1.13-.2.25-.31.38,0,0,.05.05.05.05Z"/>
  <g>
    <path class="cls-2" d="M35.14,308.99c62.26-.36,138.65,1.34,200.91.98"/>
    <path class="cls-2" d="M20.7,356.46c73-.44,158.6-1.67,231.6-2.11"/>
    <path class="cls-2" d="M35.14,399.79c67.13-.37,145.15.09,212.28-.27"/>
    <path class="cls-2" d="M49.41,85.75c62.26-.36,140.14-1.31,202.4-1.67"/>
    <path class="cls-2" d="M33.43,130.36c73-.44,161.89-.45,234.89-.89"/>
    <path class="cls-2" d="M43.17,175.75c66.46-.6,142.18-.29,208.63-.89"/>
  </g>
  <path class="cls-3" d="M42.72,73c162.51-83.84,210.16,5.1,221.47,46.15,29.98,120.91-300.43,140.64-239.36,266.19,11.88,23.31,52.31,89.77,222.09,27.9"/>
  <path class="cls-1" d="M261.71,60C93.24-11.12,42.78,79.42,34.66,121.22c-20.61,122.86,267.25,130.13,216.01,260-10.05,24.15-49.76,104.49-223.78,55.84"/>
</svg>